{"title":"Dabangg 2 2012 720p BluRay nHD x264 (NhaNc3) - Hindi","uid":8282101,"size":2618608314,"categoryP":"video","categoryS":"hd___movies","magnet":"?xt=urn:btih:930b04c33986d1e39d2a131fb4984b85cbdf693d&amp;dn=Dabangg+2+2012+720p+BluRay+nHD+x264+%28NhaNc3%29+-+Hindi&amp;tr=udp%3A%2F%2Ftracker.openbittorrent.com%3A80&amp;tr=udp%3A%2F%2Fopen.demonii.com%3A1337&amp;tr=udp%3A%2F%2Ftracker.coppersurfer.tk%3A6969&amp;tr=udp%3A%2F%2Fexodus.desync.com%3A6969","seeders":1,"leechers":0,"uploader":"SJonam","files":1,"time":1363865939,"description":" &lt;a href=&quot;http://desibbrg.org/images/66952052392581364616.gif&quot; rel=&quot;nofollow&quot; target=&quot;_NEW&quot;&gt;http://desibbrg.org/images/66952052392581364616.gif&lt;/a&gt; &lt;a href=&quot;\nhttp://desibbrg.org/images/83843901392996851682.png&quot; rel=&quot;nofollow&quot; target=&quot;_NEW&quot;&gt;\nhttp://desibbrg.org/images/83843901392996851682.png&lt;/a&gt; &lt;a href=&quot;\nhttp://desibbrg.org/images/41094400214731838225.png&quot; rel=&quot;nofollow&quot; target=&quot;_NEW&quot;&gt;\nhttp://desibbrg.org/images/41094400214731838225.png&lt;/a&gt; &lt;a href=&quot;\nhttp://desibbrg.org/images/90767585887610512252.png&quot; rel=&quot;nofollow&quot; target=&quot;_NEW&quot;&gt;\nhttp://desibbrg.org/images/90767585887610512252.png&lt;/a&gt; &lt;a href=&quot;\nhttp://desibbrg.org/images/40123194459015719110.png&quot; rel=&quot;nofollow&quot; target=&quot;_NEW&quot;&gt;\nhttp://desibbrg.org/images/40123194459015719110.png&lt;/a&gt;\n\nInfo - \nVideo\nID : 1\nFormat : AVC\nFormat/Info : Advanced Video Codec\nFormat profile : &lt;a class=&quot;__cf_email__&quot; href=&quot;/cdn-cgi/l/email-protection&quot; data-cfemail=&quot;723a1b151a323e465c43&quot;&gt;[email&amp;#160;protected]&lt;/a&gt;&lt;script cf-hash='f9e31' type=&quot;text/javascript&quot;&gt;\n/* &lt;![CDATA[ */!function(){try{var t=&quot;currentScript&quot;in document?document.currentScript:function(){for(var t=document.getElementsByTagName(&quot;script&quot;),e=t.length;e--;)if(t[e].getAttribute(&quot;cf-hash&quot;))return t[e]}();if(t&amp;&amp;t.previousSibling){var e,r,n,i,c=t.previousSibling,a=c.getAttribute(&quot;data-cfemail&quot;);if(a){for(e=&quot;&quot;,r=parseInt(a.substr(0,2),16),n=2;a.length-n;n+=2)i=parseInt(a.substr(n,2),16)^r,e+=String.fromCharCode(i);e=document.createTextNode(e),c.parentNode.replaceChild(e,c)}}}catch(u){}}();/* ]]&gt; */&lt;/script&gt;\nFormat settings, CABAC : Yes\nFormat settings, ReFrames : 9 frames\nCodec ID : V_MPEG4/ISO/AVC\nDuration : 2h 3mn\nBit rate : 2 443 Kbps\nWidth : 1 280 pixels\nHeight : 544 pixels\nDisplay aspect ratio : 2.35:1\nFrame rate : 24.000 fps\nColor space : YUV\nChroma subsampling : 4:2:0\nBit depth : 8 bits\nScan type : Progressive\nBits/(Pixel*Frame) : 0.146\nStream size : 2.06 GiB (84%)\nWriting library : x264 core 130 r2273 b3065e6\nLanguage : English\nDefault : Yes\nForced : No\nColor primaries : BT.709-5, BT.1361, IEC 61966-2-4, SMPTE RP177\nTransfer characteristics : BT.709-5, BT.1361\nMatrix coefficients : BT.709-5, BT.1361, IEC 61966-2-4 709, SMPTE RP177\n\nAudio\nID : 2\nFormat : AC-3\nFormat/Info : Audio Coding 3\nMode extension : CM (complete main)\nCodec ID : A_AC3\nDuration : 2h 3mn\nBit rate mode : Constant\nBit rate : 384 Kbps\nChannel(s) : 6 channels\nChannel positions : Front: L C R, Side: L R, LFE\nSampling rate : 48.0 KHz\nBit depth : 16 bits\nCompression mode : Lossy\nStream size : 339 MiB (14%)\nLanguage : English\nDefault : Yes\nForced : Yes\n\nRipper : NhaNc3\n\nSeeding 24x7... Extreme Seeding...\n\nEnjoy!\n","torrent":{"xt":"urn:btih:930b04c33986d1e39d2a131fb4984b85cbdf693d","amp;dn":"Dabangg+2+2012+720p+BluRay+nHD+x264+%28NhaNc3%29+-+Hindi","amp;tr":["udp%3A%2F%2Ftracker.openbittorrent.com%3A80","udp%3A%2F%2Fopen.demonii.com%3A1337","udp%3A%2F%2Ftracker.coppersurfer.tk%3A6969","udp%3A%2F%2Fexodus.desync.com%3A6969"],"infoHash":"930b04c33986d1e39d2a131fb4984b85cbdf693d","infoHashBuffer":{"type":"Buffer","data":[147,11,4,195,57,134,209,227,157,42,19,31,180,152,75,133,203,223,105,61]},"announce":[],"urlList":[]}}